<svg width="42" height="42" viewBox="0 0 42 42" fill="none" xmlns="http://www.w3.org/2000/svg">
<rect width="42" height="42" rx="21" fill="#0C1219"/>
<g clip-path="url(#clip0_3892_118546)">
<path d="M21 12.3908C23.8055 12.3908 24.1377 12.4031 25.241 12.4523C26.2664 12.4975 26.8201 12.6697 27.1893 12.8133C27.6773 13.002 28.0301 13.2316 28.3951 13.5967C28.7643 13.9658 28.9898 14.3145 29.1785 14.8025C29.3221 15.1717 29.4943 15.7295 29.5395 16.7508C29.5887 17.8582 29.601 18.1904 29.601 20.9918C29.601 23.7973 29.5887 24.1295 29.5395 25.2328C29.4943 26.2582 29.3221 26.8119 29.1785 27.1811C28.9898 27.6691 28.7602 28.0219 28.3951 28.3869C28.026 28.7561 27.6773 28.9816 27.1893 29.1703C26.8201 29.3139 26.2623 29.4861 25.241 29.5312C24.1336 29.5805 23.8014 29.5928 21 29.5928C18.1945 29.5928 17.8623 29.5805 16.759 29.5312C15.7336 29.4861 15.1799 29.3139 14.8107 29.1703C14.3227 28.9816 13.9699 28.752 13.6049 28.3869C13.2357 28.0178 13.0102 27.6691 12.8215 27.1811C12.6779 26.8119 12.5057 26.2541 12.4605 25.2328C12.4113 24.1254 12.399 23.7932 12.399 20.9918C12.399 18.1863 12.4113 17.8541 12.4605 16.7508C12.5057 15.7254 12.6779 15.1717 12.8215 14.8025C13.0102 14.3145 13.2398 13.9617 13.6049 13.5967C13.974 13.2275 14.3227 13.002 14.8107 12.8133C15.1799 12.6697 15.7377 12.4975 16.759 12.4523C17.8623 12.4031 18.1945 12.3908 21 12.3908ZM21 10.5C18.1494 10.5 17.7926 10.5123 16.6729 10.5615C15.5572 10.6107 14.7902 10.7912 14.1258 11.0496C13.4326 11.3203 12.8461 11.6771 12.2637 12.2637C11.6771 12.8461 11.3203 13.4326 11.0496 14.1217C10.7912 14.7902 10.6107 15.5531 10.5615 16.6687C10.5123 17.7926 10.5 18.1494 10.5 21C10.5 23.8506 10.5123 24.2074 10.5615 25.3271C10.6107 26.4428 10.7912 27.2098 11.0496 27.8742C11.3203 28.5674 11.6771 29.1539 12.2637 29.7363C12.8461 30.3188 13.4326 30.6797 14.1217 30.9463C14.7902 31.2047 15.5531 31.3852 16.6688 31.4344C17.7885 31.4836 18.1453 31.4959 20.9959 31.4959C23.8465 31.4959 24.2033 31.4836 25.323 31.4344C26.4387 31.3852 27.2057 31.2047 27.8701 30.9463C28.5592 30.6797 29.1457 30.3188 29.7281 29.7363C30.3105 29.1539 30.6715 28.5674 30.9381 27.8783C31.1965 27.2098 31.377 26.4469 31.4262 25.3313C31.4754 24.2115 31.4877 23.8547 31.4877 21.0041C31.4877 18.1535 31.4754 17.7967 31.4262 16.677C31.377 15.5613 31.1965 14.7943 30.9381 14.1299C30.6797 13.4326 30.3229 12.8461 29.7363 12.2637C29.1539 11.6812 28.5674 11.3203 27.8783 11.0537C27.2098 10.7953 26.4469 10.6148 25.3313 10.5656C24.2074 10.5123 23.8506 10.5 21 10.5Z" fill="white"/>
<path d="M21 15.6064C18.0223 15.6064 15.6064 18.0223 15.6064 21C15.6064 23.9777 18.0223 26.3936 21 26.3936C23.9777 26.3936 26.3936 23.9777 26.3936 21C26.3936 18.0223 23.9777 15.6064 21 15.6064ZM21 24.4986C19.0682 24.4986 17.5014 22.9318 17.5014 21C17.5014 19.0682 19.0682 17.5014 21 17.5014C22.9318 17.5014 24.4986 19.0682 24.4986 21C24.4986 22.9318 22.9318 24.4986 21 24.4986Z" fill="white"/>
<path d="M27.866 15.393C27.866 16.0902 27.3 16.6522 26.6068 16.6522C25.9096 16.6522 25.3477 16.0861 25.3477 15.393C25.3477 14.6957 25.9137 14.1338 26.6068 14.1338C27.3 14.1338 27.866 14.6998 27.866 15.393Z" fill="white"/>
</g>
<defs>
<clipPath id="clip0_3892_118546">
<rect width="21" height="21" fill="white" transform="translate(10.5 10.5)"/>
</clipPath>
</defs>
</svg>
