<svg width="26" height="48" viewBox="0 0 26 48" fill="none" xmlns="http://www.w3.org/2000/svg">
<path fill-rule="evenodd" clip-rule="evenodd" d="M6.90062 10.1001C6.90062 10.1001 7.92728 9.46964 7.82462 8.10373C7.72195 6.73782 6.48996 4.42629 3.71798 6.1074C1.04866 7.78852 -0.183332 19.2411 0.0219999 26.9112C0.227332 34.5813 1.56199 42.1463 6.38729 42.9869C11.2126 43.8275 15.8326 32.6901 15.8326 32.6901C15.8326 32.6901 16.3459 38.679 17.1672 42.9869C17.9886 47.2948 19.5285 48.6607 22.3005 47.715C25.0725 46.7694 22.4032 42.5666 22.0952 40.9906C21.8899 39.4145 21.2739 34.4762 21.3765 28.4873C21.4792 22.4983 21.8899 16.6144 21.8899 16.6144C21.8899 16.6144 25.4832 8.52401 25.8938 4.95164C26.2018 2.32489 25.9965 0.223494 23.1219 0.0133547C20.3499 -0.196785 19.4259 2.11475 18.8099 4.00601C18.1939 5.89726 16.9619 15.8789 16.9619 15.8789C16.9619 15.8789 14.3952 23.8642 11.8286 29.0126C9.87794 33.0053 8.13262 35.8422 7.41395 36.8929C7.31129 37.103 7.00329 37.103 6.90062 36.7878C6.38729 35.4219 5.05263 31.114 5.1553 22.8135C5.25797 12.3065 6.90062 10.1001 6.90062 10.1001Z" fill="#00BCF1"/>
</svg>
