<svg width="76" height="49" viewBox="0 0 76 49" fill="none" xmlns="http://www.w3.org/2000/svg">
<path d="M31.5518 48.9997H25.6553L28.4482 41.903L21 24.1061H26.8965L31.4482 35.1227L35.8965 23.9997H42L31.5518 48.9997ZM73.1221 0.013352C75.9965 0.22358 76.2015 2.32515 75.8936 4.95183C75.4843 8.5115 71.9152 16.5563 71.8896 16.6139C71.8896 16.6139 71.4796 22.4981 71.377 28.487C71.2743 34.476 71.8894 39.4148 72.0947 40.9909C72.4029 42.5671 75.0725 46.7698 72.3008 47.7155C69.5288 48.6611 67.9883 47.2948 67.167 42.987C66.3472 38.6871 65.8349 32.7123 65.833 32.6901C65.833 32.6901 61.2129 43.8269 56.3877 42.987C51.5624 42.1464 50.2278 34.5809 50.0225 26.9108C49.8172 19.2407 51.0485 7.78819 53.7178 6.1071C56.4898 4.42599 57.7216 6.73827 57.8242 8.10417C57.9267 9.46981 56.9004 10.1003 56.9004 10.1003C56.8812 10.1264 55.2574 12.3686 55.1553 22.8132C55.0526 31.1134 56.387 35.4217 56.9004 36.7878C57.003 37.1029 57.3113 37.1031 57.4141 36.8932C58.1327 35.8425 59.8775 33.005 61.8281 29.0124C64.3948 23.864 66.9619 15.8786 66.9619 15.8786C66.97 15.8129 68.1956 5.89284 68.8096 4.00652C69.4256 2.11526 70.3501 -0.196788 73.1221 0.013352ZM6.08984 24.9303C7.55981 24.0899 9.23993 23.5642 11.1299 23.5641C16.4847 23.5641 20.8948 27.8714 21 33.2292C21 38.587 16.5902 42.9995 11.2354 42.9997C9.34549 42.9997 7.66524 42.4748 6.19531 41.6344V42.3698H0.105469L0 15.9997H6.08984V24.9303ZM44 36.9997C45.6567 36.9997 46.9998 38.343 47 39.9997C47 41.6565 45.6569 42.9997 44 42.9997C42.3431 42.9997 41 41.6565 41 39.9997C41.0002 38.343 42.3433 36.9997 44 36.9997ZM10.6055 28.2917C7.87547 28.3967 5.66993 30.6031 5.66992 33.3346C5.77492 36.0661 7.97998 38.2721 10.71 38.2721C13.44 38.2721 15.6445 36.0658 15.6445 33.2292C15.5393 30.498 13.3351 28.1869 10.6055 28.2917Z" fill="white"/>
</svg>
