<svg width="295" height="192" viewBox="0 0 295 192" fill="none" xmlns="http://www.w3.org/2000/svg">
<rect width="295" height="192" rx="10" fill="#D42428"/>
<mask id="mask0_3893_89981" style="mask-type:luminance" maskUnits="userSpaceOnUse" x="0" y="0" width="295" height="192">
<rect width="295" height="192" rx="10" fill="white"/>
</mask>
<g mask="url(#mask0_3893_89981)">
</g>
<g filter="url(#filter0_ddd_3893_89981)">
<rect x="88.5" y="37.978" width="118" height="118.154" rx="10" fill="white"/>
</g>
<rect x="88.5" y="37.978" width="118" height="118.154" rx="10" fill="#D42428"/>
<path fill-rule="evenodd" clip-rule="evenodd" d="M175.79 67.5166C182.625 67.5166 188.165 73.0668 188.165 79.9144H188.164V113.159C188.164 120.006 182.625 125.557 175.789 125.557H117.73C110.898 125.557 105.357 120.007 105.357 113.159V79.9144C105.357 73.0681 110.897 67.5166 117.73 67.5166H175.79ZM138.478 79.3367V110.562L162.127 94.9499L138.478 79.3367Z" fill="white"/>
<defs>
<filter id="filter0_ddd_3893_89981" x="70.5" y="20.978" width="154" height="154.154" filterUnits="userSpaceOnUse" color-interpolation-filters="sRGB">
<feFlood flood-opacity="0" result="BackgroundImageFix"/>
<feColorMatrix in="SourceAlpha" type="matrix" values="0 0 0 0 0 0 0 0 0 0 0 0 0 0 0 0 0 0 127 0" result="hardAlpha"/>
<feOffset dy="3"/>
<feGaussianBlur stdDeviation="2.5"/>
<feColorMatrix type="matrix" values="0 0 0 0 0 0 0 0 0 0 0 0 0 0 0 0 0 0 0.05 0"/>
<feBlend mode="normal" in2="BackgroundImageFix" result="effect1_dropShadow_3893_89981"/>
<feColorMatrix in="SourceAlpha" type="matrix" values="0 0 0 0 0 0 0 0 0 0 0 0 0 0 0 0 0 0 127 0" result="hardAlpha"/>
<feOffset dy="1"/>
<feGaussianBlur stdDeviation="9"/>
<feColorMatrix type="matrix" values="0 0 0 0 0 0 0 0 0 0 0 0 0 0 0 0 0 0 0.05 0"/>
<feBlend mode="normal" in2="effect1_dropShadow_3893_89981" result="effect2_dropShadow_3893_89981"/>
<feColorMatrix in="SourceAlpha" type="matrix" values="0 0 0 0 0 0 0 0 0 0 0 0 0 0 0 0 0 0 127 0" result="hardAlpha"/>
<feOffset dy="6"/>
<feGaussianBlur stdDeviation="5"/>
<feColorMatrix type="matrix" values="0 0 0 0 0 0 0 0 0 0 0 0 0 0 0 0 0 0 0.05 0"/>
<feBlend mode="normal" in2="effect2_dropShadow_3893_89981" result="effect3_dropShadow_3893_89981"/>
<feBlend mode="normal" in="SourceGraphic" in2="effect3_dropShadow_3893_89981" result="shape"/>
</filter>
</defs>
</svg>
