<svg width="40" height="40" viewBox="0 0 40 40" fill="none" xmlns="http://www.w3.org/2000/svg">
<path d="M18.3333 33.3333C25.6971 33.3333 31.6667 27.3638 31.6667 20C31.6667 12.6362 25.6971 6.66663 18.3333 6.66663C10.9695 6.66663 5 12.6362 5 20C5 27.3638 10.9695 33.3333 18.3333 33.3333Z" fill="#BFEEFC"/>
<path d="M18.3336 35C15.9557 34.9998 13.612 34.4343 11.4957 33.3501C9.37943 32.2659 7.5512 30.6941 6.16184 28.7644C4.77248 26.8347 3.86179 24.6023 3.50489 22.2514C3.14799 19.9005 3.3551 17.4984 4.10914 15.2433C4.86318 12.9882 6.14254 10.9447 7.84171 9.28125C9.54087 7.61783 11.6112 6.3822 13.8818 5.67627C16.1524 4.97034 18.5584 4.81434 20.9011 5.22114C23.2439 5.62794 25.4564 6.58588 27.3562 8.01595C27.708 8.28253 27.9398 8.67776 28.0006 9.11497C28.0615 9.55218 27.9464 9.99568 27.6808 10.3482C27.4151 10.7007 27.0204 10.9335 26.5834 10.9954C26.1463 11.0574 25.7026 10.9435 25.3494 10.6787C23.331 9.14922 20.866 8.32518 18.3336 8.33333C16.0261 8.33333 13.7705 9.01757 11.8519 10.2995C9.93335 11.5815 8.438 13.4036 7.55498 15.5354C6.67196 17.6672 6.44092 20.0129 6.89108 22.2761C7.34124 24.5392 8.45238 26.618 10.084 28.2496C11.7156 29.8812 13.7944 30.9923 16.0575 31.4425C18.3206 31.8927 20.6664 31.6616 22.7982 30.7786C24.93 29.8956 26.7521 28.4002 28.0341 26.4817C29.316 24.5631 30.0002 22.3074 30.0002 20C30.0002 19.558 30.1758 19.1341 30.4884 18.8215C30.801 18.5089 31.2249 18.3333 31.6669 18.3333C32.1089 18.3333 32.5329 18.5089 32.8454 18.8215C33.158 19.1341 33.3336 19.558 33.3336 20C33.3291 23.9769 31.7473 27.7896 28.9352 30.6017C26.1231 33.4137 22.3104 34.9955 18.3336 35Z" fill="#0397C9"/>
<path d="M18.3339 25C18.1149 25.0003 17.8979 24.9574 17.6956 24.8736C17.4932 24.7898 17.3094 24.6668 17.1547 24.5117L12.1547 19.5117C11.8462 19.1983 11.6741 18.7757 11.6758 18.336C11.6775 17.8963 11.853 17.4751 12.1639 17.1641C12.4748 16.8532 12.8961 16.6778 13.3358 16.6761C13.7755 16.6743 14.1981 16.8465 14.5114 17.155L18.4568 21.1003L33.9589 8.69796C34.3043 8.42342 34.7446 8.29707 35.1831 8.3466C35.6216 8.39613 36.0225 8.61751 36.2981 8.96219C36.5736 9.30688 36.7012 9.74676 36.6529 10.1854C36.6047 10.624 36.3844 11.0256 36.0405 11.3021L19.3739 24.6355C19.0787 24.8717 18.7119 25.0003 18.3339 25Z" fill="#0397C9"/>
</svg>
