<svg width="25" height="17" viewBox="0 0 25 17" fill="none" xmlns="http://www.w3.org/2000/svg">
<path d="M6.66152 16.6724C6.44237 16.6727 6.22531 16.6298 6.02284 16.5459C5.82036 16.4621 5.63646 16.339 5.48172 16.1838L0.479179 11.1813C0.170526 10.8678 -0.00170738 10.445 1.27618e-05 10.005C0.0017329 9.56508 0.177267 9.14364 0.488362 8.83255C0.799458 8.52146 1.2209 8.34594 1.66085 8.34423C2.10079 8.34252 2.52359 8.51476 2.83709 8.82342L6.78441 12.7707L22.2944 0.362089C22.6401 0.0874084 23.0805 -0.0390108 23.5192 0.0105452C23.958 0.0601012 24.3591 0.281588 24.6348 0.626452C24.9105 0.971316 25.0381 1.41142 24.9898 1.85027C24.9415 2.28912 24.7212 2.69092 24.3771 2.96758L7.702 16.3077C7.40673 16.544 7.03973 16.6727 6.66152 16.6724Z" fill="#0397C9"/>
</svg>
