<svg width="30" height="30" viewBox="0 0 30 30" fill="none" xmlns="http://www.w3.org/2000/svg">
<path d="M14.9986 30C12.6208 29.9998 10.277 29.4343 8.16076 28.3501C6.04446 27.2659 4.21624 25.6941 2.82688 23.7644C1.43752 21.8347 0.526831 19.6023 0.169929 17.2514C-0.186974 14.9005 0.0201364 12.4984 0.774177 10.2433C1.52822 7.98821 2.80758 5.94467 4.50675 4.28125C6.20591 2.61783 8.27619 1.3822 10.5468 0.67627C12.8175 -0.029659 15.2234 -0.185657 17.5662 0.221142C19.909 0.627941 22.1215 1.58588 24.0212 3.01595C24.3731 3.28253 24.6048 3.67776 24.6657 4.11497C24.7265 4.55218 24.6115 4.99568 24.3458 5.34819C24.0801 5.70071 23.6855 5.93347 23.2484 5.99543C22.8114 6.0574 22.3676 5.9435 22.0144 5.67872C19.996 4.14922 17.531 3.32518 14.9986 3.33333C12.6912 3.33333 10.4355 4.01757 8.51696 5.29952C6.59839 6.58147 5.10304 8.40355 4.22002 10.5354C3.337 12.6672 3.10596 15.0129 3.55612 17.2761C4.00628 19.5392 5.11742 21.618 6.74903 23.2496C8.38065 24.8812 10.4594 25.9923 12.7226 26.4425C14.9857 26.8927 17.3314 26.6616 19.4633 25.7786C21.5951 24.8956 23.4171 23.4002 24.6991 21.4817C25.981 19.5631 26.6653 17.3074 26.6653 15C26.6653 14.558 26.8409 14.1341 27.1534 13.8215C27.466 13.5089 27.8899 13.3333 28.3319 13.3333C28.774 13.3333 29.1979 13.5089 29.5105 13.8215C29.823 14.1341 29.9986 14.558 29.9986 15C29.9941 18.9769 28.4123 22.7896 25.6003 25.6017C22.7882 28.4137 18.9755 29.9955 14.9986 30Z" fill="#0397C9"/>
</svg>
