<svg width="10" height="17" viewBox="0 0 10 17" fill="none" xmlns="http://www.w3.org/2000/svg">
<g filter="url(#filter0_d_3864_46586)">
<mask id="path-1-outside-1_3864_46586" maskUnits="userSpaceOnUse" x="1" y="-0.455078" width="9" height="16" fill="black">
<rect fill="white" x="1" y="-0.455078" width="9" height="16"/>
<path d="M5.82367 13.6529C5.16367 13.6529 4.67167 13.4969 4.34767 13.1849C4.02367 12.8609 3.86167 12.2789 3.86167 11.4389C3.86167 11.1509 3.86767 10.8449 3.87967 10.5209C3.89167 10.1969 3.90367 9.86092 3.91567 9.51292C3.92767 9.16492 3.93967 8.82292 3.95167 8.48692C3.97567 8.15092 3.99367 7.83292 4.00567 7.53292C4.01767 7.23292 4.02367 6.96292 4.02367 6.72292C4.03567 6.47092 4.04167 6.27292 4.04167 6.12892C4.04167 5.86492 4.00567 5.70292 3.93367 5.64292C3.87367 5.57092 3.77767 5.52292 3.64567 5.49892C3.38167 5.45092 3.19567 5.33092 3.08767 5.13892C2.97967 4.93492 2.92567 4.68892 2.92567 4.40092C2.92567 3.83692 3.05767 3.36892 3.32167 2.99692C3.59767 2.61292 3.95167 2.32492 4.38367 2.13292C4.81567 1.94092 5.27167 1.84492 5.75167 1.84492C6.30367 1.84492 6.72367 1.96492 7.01167 2.20492C7.31167 2.44492 7.52167 2.79292 7.64167 3.24892C7.77367 3.78892 7.85167 4.43692 7.87567 5.19292C7.91167 5.93692 7.92967 6.78292 7.92967 7.73092C7.92967 8.75092 7.90567 9.65092 7.85767 10.4309C7.82167 11.2109 7.73767 11.8649 7.60567 12.3929C7.48567 12.8249 7.28167 13.1429 6.99367 13.3469C6.70567 13.5509 6.31567 13.6529 5.82367 13.6529Z"/>
</mask>
<path d="M5.82367 13.6529C5.16367 13.6529 4.67167 13.4969 4.34767 13.1849C4.02367 12.8609 3.86167 12.2789 3.86167 11.4389C3.86167 11.1509 3.86767 10.8449 3.87967 10.5209C3.89167 10.1969 3.90367 9.86092 3.91567 9.51292C3.92767 9.16492 3.93967 8.82292 3.95167 8.48692C3.97567 8.15092 3.99367 7.83292 4.00567 7.53292C4.01767 7.23292 4.02367 6.96292 4.02367 6.72292C4.03567 6.47092 4.04167 6.27292 4.04167 6.12892C4.04167 5.86492 4.00567 5.70292 3.93367 5.64292C3.87367 5.57092 3.77767 5.52292 3.64567 5.49892C3.38167 5.45092 3.19567 5.33092 3.08767 5.13892C2.97967 4.93492 2.92567 4.68892 2.92567 4.40092C2.92567 3.83692 3.05767 3.36892 3.32167 2.99692C3.59767 2.61292 3.95167 2.32492 4.38367 2.13292C4.81567 1.94092 5.27167 1.84492 5.75167 1.84492C6.30367 1.84492 6.72367 1.96492 7.01167 2.20492C7.31167 2.44492 7.52167 2.79292 7.64167 3.24892C7.77367 3.78892 7.85167 4.43692 7.87567 5.19292C7.91167 5.93692 7.92967 6.78292 7.92967 7.73092C7.92967 8.75092 7.90567 9.65092 7.85767 10.4309C7.82167 11.2109 7.73767 11.8649 7.60567 12.3929C7.48567 12.8249 7.28167 13.1429 6.99367 13.3469C6.70567 13.5509 6.31567 13.6529 5.82367 13.6529Z" fill="white"/>
<path d="M4.34767 13.1849L3.28701 14.2456L3.29702 14.2556L3.30721 14.2654L4.34767 13.1849ZM3.87967 10.5209L2.3807 10.4654L3.87967 10.5209ZM3.91567 9.51292L5.41478 9.56462L3.91567 9.51292ZM3.95167 8.48692L2.45548 8.38005L2.45358 8.40669L2.45263 8.43338L3.95167 8.48692ZM4.00567 7.53292L5.50447 7.59287V7.59287L4.00567 7.53292ZM4.02367 6.72292L2.52537 6.65157L2.52367 6.68723V6.72292H4.02367ZM3.93367 5.64292L2.78134 6.6032L2.86864 6.70796L2.9734 6.79525L3.93367 5.64292ZM3.64567 5.49892L3.914 4.02312L3.64567 5.49892ZM3.08767 5.13892L1.76199 5.84075L1.77094 5.85765L1.78031 5.87432L3.08767 5.13892ZM3.32167 2.99692L2.10363 2.12145L2.09841 2.1288L3.32167 2.99692ZM4.38367 2.13292L4.99288 3.50364L4.99288 3.50364L4.38367 2.13292ZM7.01167 2.20492L6.0514 3.35725L6.06292 3.36685L6.07463 3.37622L7.01167 2.20492ZM7.64167 3.24892L9.09877 2.89274L9.09564 2.87993L9.09229 2.86718L7.64167 3.24892ZM7.87567 5.19292L6.37643 5.24052L6.37682 5.25297L6.37743 5.26542L7.87567 5.19292ZM7.85767 10.4309L6.3605 10.3388L6.3598 10.3503L6.35927 10.3618L7.85767 10.4309ZM7.60567 12.3929L9.05095 12.7944L9.05616 12.7756L9.06089 12.7567L7.60567 12.3929ZM6.99367 13.3469L7.8607 14.571L6.99367 13.3469ZM5.82367 13.6529V12.1529C5.37196 12.1529 5.32553 12.0442 5.38813 12.1044L4.34767 13.1849L3.30721 14.2654C4.01781 14.9497 4.95538 15.1529 5.82367 15.1529V13.6529ZM4.34767 13.1849L5.40833 12.1243C5.47816 12.1941 5.46132 12.2221 5.42823 12.1032C5.39478 11.983 5.36167 11.7717 5.36167 11.4389H3.86167H2.36167C2.36167 12.3766 2.52372 13.4823 3.28701 14.2456L4.34767 13.1849ZM3.86167 11.4389H5.36167C5.36167 11.1716 5.36724 10.8842 5.37864 10.5764L3.87967 10.5209L2.3807 10.4654C2.3681 10.8056 2.36167 11.1303 2.36167 11.4389H3.86167ZM3.87967 10.5209L5.37864 10.5764C5.39069 10.2511 5.40274 9.9138 5.41478 9.56462L3.91567 9.51292L2.41656 9.46123C2.4046 9.80805 2.39265 10.1428 2.3807 10.4654L3.87967 10.5209ZM3.91567 9.51292L5.41478 9.56462C5.42676 9.21721 5.43874 8.87582 5.45072 8.54046L3.95167 8.48692L2.45263 8.43338C2.44061 8.77002 2.42859 9.11263 2.41656 9.46123L3.91567 9.51292ZM3.95167 8.48692L5.44786 8.59379C5.47284 8.24401 5.49178 7.91027 5.50447 7.59287L4.00567 7.53292L2.50687 7.47297C2.49557 7.75557 2.4785 8.05783 2.45548 8.38005L3.95167 8.48692ZM4.00567 7.53292L5.50447 7.59287C5.51709 7.2776 5.52367 6.98712 5.52367 6.72292H4.02367H2.52367C2.52367 6.93872 2.51826 7.18824 2.50687 7.47297L4.00567 7.53292ZM4.02367 6.72292L5.52197 6.79427C5.5344 6.53327 5.54167 6.30795 5.54167 6.12892H4.04167H2.54167C2.54167 6.2379 2.53694 6.40857 2.52537 6.65157L4.02367 6.72292ZM4.04167 6.12892H5.54167C5.54167 5.94357 5.53037 5.71541 5.47895 5.48403C5.4383 5.30109 5.3168 4.84296 4.89395 4.49059L3.93367 5.64292L2.9734 6.79525C2.78518 6.6384 2.6834 6.46877 2.63207 6.36325C2.5802 6.25663 2.55871 6.17227 2.55039 6.13482C2.53497 6.06543 2.54167 6.05027 2.54167 6.12892H4.04167ZM3.93367 5.64292L5.08601 4.68265C4.7211 4.24477 4.24554 4.0834 3.914 4.02312L3.64567 5.49892L3.37734 6.97473C3.3098 6.96245 3.02624 6.89708 2.78134 6.6032L3.93367 5.64292ZM3.64567 5.49892L3.914 4.02312C3.93585 4.02709 4.0175 4.04547 4.12136 4.11248C4.2323 4.18405 4.32885 4.28587 4.39503 4.40353L3.08767 5.13892L1.78031 5.87432C2.15474 6.53997 2.77933 6.866 3.37734 6.97473L3.64567 5.49892ZM3.08767 5.13892L4.41335 4.43709C4.42829 4.4653 4.43184 4.48231 4.43129 4.47981C4.4305 4.47623 4.42567 4.45187 4.42567 4.40092H2.92567H1.42567C1.42567 4.87409 1.51459 5.37344 1.76199 5.84075L3.08767 5.13892ZM2.92567 4.40092H4.42567C4.42567 4.07356 4.49972 3.92875 4.54493 3.86504L3.32167 2.99692L2.09841 2.1288C1.61563 2.80909 1.42567 3.60029 1.42567 4.40092H2.92567ZM3.32167 2.99692L4.5397 3.87238C4.66036 3.7045 4.80426 3.58747 4.99288 3.50364L4.38367 2.13292L3.77446 0.762204C3.09909 1.06237 2.53498 1.52135 2.10365 2.12147L3.32167 2.99692ZM4.38367 2.13292L4.99288 3.50364C5.23008 3.39821 5.47823 3.34492 5.75167 3.34492V1.84492V0.344921C5.06511 0.344921 4.40126 0.483628 3.77446 0.762205L4.38367 2.13292ZM5.75167 1.84492V3.34492C5.92316 3.34492 6.02244 3.36402 6.06859 3.37721C6.11054 3.38919 6.09227 3.39132 6.0514 3.35725L7.01167 2.20492L7.97195 1.05259C7.31236 0.502935 6.49377 0.344921 5.75167 0.344921V1.84492ZM7.01167 2.20492L6.07463 3.37622C6.07855 3.37936 6.091 3.38961 6.10989 3.42092C6.13026 3.45468 6.16179 3.51941 6.19106 3.63066L7.64167 3.24892L9.09229 2.86718C8.90932 2.1719 8.55289 1.51696 7.94872 1.03362L7.01167 2.20492ZM7.64167 3.24892L6.18457 3.6051C6.28482 4.01521 6.35464 4.55407 6.37643 5.24052L7.87567 5.19292L9.37492 5.14533C9.34871 4.31978 9.26252 3.56263 9.09877 2.89274L7.64167 3.24892ZM7.87567 5.19292L6.37743 5.26542C6.41199 5.97982 6.42967 6.80095 6.42967 7.73092H7.92967H9.42967C9.42967 6.7649 9.41135 5.89402 9.37392 5.12043L7.87567 5.19292ZM7.92967 7.73092H6.42967C6.42967 8.72887 6.40615 9.59705 6.3605 10.3388L7.85767 10.4309L9.35484 10.5231C9.40519 9.70479 9.42967 8.77297 9.42967 7.73092H7.92967ZM7.85767 10.4309L6.35927 10.3618C6.32606 11.0813 6.25042 11.6293 6.15046 12.0291L7.60567 12.3929L9.06089 12.7567C9.22493 12.1006 9.31729 11.3405 9.35608 10.5001L7.85767 10.4309ZM7.60567 12.3929L6.1604 11.9915C6.13327 12.0891 6.10767 12.1337 6.10013 12.1455C6.09475 12.1539 6.10262 12.1399 6.12664 12.1229L6.99367 13.3469L7.8607 14.571C8.4993 14.1186 8.86405 13.4672 9.05095 12.7944L7.60567 12.3929ZM6.99367 13.3469L6.12665 12.1229C6.17435 12.0891 6.1239 12.1529 5.82367 12.1529V13.6529V15.1529C6.50745 15.1529 7.237 15.0127 7.8607 14.571L6.99367 13.3469Z" fill="#420042" mask="url(#path-1-outside-1_3864_46586)"/>
</g>
<defs>
<filter id="filter0_d_3864_46586" x="0.425781" y="0.344727" width="9.00391" height="15.8086" filterUnits="userSpaceOnUse" color-interpolation-filters="sRGB">
<feFlood flood-opacity="0" result="BackgroundImageFix"/>
<feColorMatrix in="SourceAlpha" type="matrix" values="0 0 0 0 0 0 0 0 0 0 0 0 0 0 0 0 0 0 127 0" result="hardAlpha"/>
<feOffset dx="-1" dy="1"/>
<feComposite in2="hardAlpha" operator="out"/>
<feColorMatrix type="matrix" values="0 0 0 0 0.258824 0 0 0 0 0 0 0 0 0 0.258824 0 0 0 1 0"/>
<feBlend mode="normal" in2="BackgroundImageFix" result="effect1_dropShadow_3864_46586"/>
<feBlend mode="normal" in="SourceGraphic" in2="effect1_dropShadow_3864_46586" result="shape"/>
</filter>
</defs>
</svg>
