<svg width="14" height="17" viewBox="0 0 14 17" fill="none" xmlns="http://www.w3.org/2000/svg">
<g filter="url(#filter0_d_3864_46605)">
<mask id="path-1-outside-1_3864_46605" maskUnits="userSpaceOnUse" x="1" y="-0.455078" width="13" height="16" fill="black">
<rect fill="white" x="1" y="-0.455078" width="13" height="16"/>
<path d="M7.76201 13.6889C6.88601 13.6889 6.16001 13.6469 5.58401 13.5629C5.00801 13.4909 4.55201 13.3709 4.21601 13.2029C3.89201 13.0349 3.66401 12.8249 3.53201 12.5729C3.40001 12.3089 3.33401 12.0029 3.33401 11.6549C3.33401 11.1989 3.42401 10.7909 3.60401 10.4309C3.79601 10.0709 4.05401 9.74692 4.37801 9.45892C4.71401 9.15892 5.09201 8.88292 5.51201 8.63092C5.87201 8.39092 6.20201 8.16292 6.50201 7.94692C6.80201 7.71892 7.06001 7.50292 7.27601 7.29892C7.49201 7.08292 7.65401 6.87892 7.76201 6.68692C7.87001 6.48292 7.92401 6.28492 7.92401 6.09292C7.92401 5.92492 7.89401 5.77492 7.83401 5.64292C7.77401 5.49892 7.66601 5.38492 7.51001 5.30092C7.36601 5.21692 7.16801 5.17492 6.91601 5.17492C6.65201 5.17492 6.40601 5.20492 6.17801 5.26492C5.96201 5.31292 5.75801 5.36692 5.56601 5.42692C5.37401 5.48692 5.17601 5.51692 4.97201 5.51692C4.76801 5.51692 4.56401 5.48092 4.36001 5.40892C4.16801 5.32492 4.00601 5.18692 3.87401 4.99492C3.74201 4.79092 3.67601 4.52092 3.67601 4.18492C3.67601 3.77692 3.82001 3.39892 4.10801 3.05092C4.39601 2.69092 4.82201 2.40292 5.38601 2.18692C5.95001 1.97092 6.64601 1.86292 7.47401 1.86292C8.85401 1.86292 9.86801 2.15692 10.516 2.74492C11.164 3.33292 11.488 4.13692 11.488 5.15692C11.488 5.68492 11.398 6.15892 11.218 6.57892C11.05 6.99892 10.828 7.37692 10.552 7.71292C10.276 8.04892 9.97001 8.36692 9.63401 8.66692C9.31001 8.95492 8.99801 9.23092 8.69801 9.49492C8.56601 9.60292 8.46401 9.68692 8.39201 9.74692C8.33201 9.80692 8.30201 9.87892 8.30201 9.96292C8.30201 10.1069 8.39201 10.1789 8.57201 10.1789C8.84801 10.1789 9.16601 10.1729 9.52601 10.1609C9.88601 10.1489 10.24 10.1429 10.588 10.1429C10.936 10.1429 11.23 10.2629 11.47 10.5029C11.71 10.7309 11.83 11.0849 11.83 11.5649C11.83 11.9969 11.704 12.3749 11.452 12.6989C11.212 13.0229 10.792 13.2689 10.192 13.4369C9.60401 13.6049 8.79401 13.6889 7.76201 13.6889Z"/>
</mask>
<path d="M7.76201 13.6889C6.88601 13.6889 6.16001 13.6469 5.58401 13.5629C5.00801 13.4909 4.55201 13.3709 4.21601 13.2029C3.89201 13.0349 3.66401 12.8249 3.53201 12.5729C3.40001 12.3089 3.33401 12.0029 3.33401 11.6549C3.33401 11.1989 3.42401 10.7909 3.60401 10.4309C3.79601 10.0709 4.05401 9.74692 4.37801 9.45892C4.71401 9.15892 5.09201 8.88292 5.51201 8.63092C5.87201 8.39092 6.20201 8.16292 6.50201 7.94692C6.80201 7.71892 7.06001 7.50292 7.27601 7.29892C7.49201 7.08292 7.65401 6.87892 7.76201 6.68692C7.87001 6.48292 7.92401 6.28492 7.92401 6.09292C7.92401 5.92492 7.89401 5.77492 7.83401 5.64292C7.77401 5.49892 7.66601 5.38492 7.51001 5.30092C7.36601 5.21692 7.16801 5.17492 6.91601 5.17492C6.65201 5.17492 6.40601 5.20492 6.17801 5.26492C5.96201 5.31292 5.75801 5.36692 5.56601 5.42692C5.37401 5.48692 5.17601 5.51692 4.97201 5.51692C4.76801 5.51692 4.56401 5.48092 4.36001 5.40892C4.16801 5.32492 4.00601 5.18692 3.87401 4.99492C3.74201 4.79092 3.67601 4.52092 3.67601 4.18492C3.67601 3.77692 3.82001 3.39892 4.10801 3.05092C4.39601 2.69092 4.82201 2.40292 5.38601 2.18692C5.95001 1.97092 6.64601 1.86292 7.47401 1.86292C8.85401 1.86292 9.86801 2.15692 10.516 2.74492C11.164 3.33292 11.488 4.13692 11.488 5.15692C11.488 5.68492 11.398 6.15892 11.218 6.57892C11.05 6.99892 10.828 7.37692 10.552 7.71292C10.276 8.04892 9.97001 8.36692 9.63401 8.66692C9.31001 8.95492 8.99801 9.23092 8.69801 9.49492C8.56601 9.60292 8.46401 9.68692 8.39201 9.74692C8.33201 9.80692 8.30201 9.87892 8.30201 9.96292C8.30201 10.1069 8.39201 10.1789 8.57201 10.1789C8.84801 10.1789 9.16601 10.1729 9.52601 10.1609C9.88601 10.1489 10.24 10.1429 10.588 10.1429C10.936 10.1429 11.23 10.2629 11.47 10.5029C11.71 10.7309 11.83 11.0849 11.83 11.5649C11.83 11.9969 11.704 12.3749 11.452 12.6989C11.212 13.0229 10.792 13.2689 10.192 13.4369C9.60401 13.6049 8.79401 13.6889 7.76201 13.6889Z" fill="white"/>
<path d="M5.58401 13.5629L5.80047 12.0786L5.78529 12.0764L5.77006 12.0745L5.58401 13.5629ZM4.21601 13.2029L3.52553 14.5346L3.53532 14.5396L3.54519 14.5446L4.21601 13.2029ZM3.53201 12.5729L2.19037 13.2437L2.19669 13.2564L2.20326 13.2689L3.53201 12.5729ZM3.60401 10.4309L2.28048 9.72504L2.27119 9.74245L2.26237 9.7601L3.60401 10.4309ZM4.37801 9.45892L5.37456 10.58L5.37703 10.5778L4.37801 9.45892ZM5.51201 8.63092L6.28375 9.91716L6.31436 9.8988L6.34406 9.879L5.51201 8.63092ZM6.50201 7.94692L7.37846 9.16422L7.3942 9.15289L7.40963 9.14116L6.50201 7.94692ZM7.27601 7.29892L8.30594 8.38944L8.32152 8.37473L8.33667 8.35958L7.27601 7.29892ZM7.76201 6.68692L9.06937 7.42231L9.07874 7.40565L9.08769 7.38875L7.76201 6.68692ZM7.83401 5.64292L6.44939 6.21984L6.45858 6.24189L6.46846 6.26363L7.83401 5.64292ZM7.51001 5.30092L6.7542 6.59659L6.77632 6.60949L6.79886 6.62163L7.51001 5.30092ZM6.17801 5.26492L6.5034 6.7292L6.53171 6.72291L6.55975 6.71553L6.17801 5.26492ZM5.56601 5.42692L5.1186 3.9952V3.9952L5.56601 5.42692ZM4.36001 5.40892L3.75878 6.78316L3.80904 6.80515L3.86077 6.82341L4.36001 5.40892ZM3.87401 4.99492L2.61465 5.8098L2.62605 5.82742L2.63794 5.84472L3.87401 4.99492ZM4.10801 3.05092L5.2636 4.00727L5.27153 3.99768L5.27931 3.98796L4.10801 3.05092ZM11.218 6.57892L9.83929 5.98804L9.83208 6.00485L9.82529 6.02184L11.218 6.57892ZM10.552 7.71292L11.7111 8.66503L10.552 7.71292ZM9.63401 8.66692L10.6306 9.78804L10.633 9.78583L9.63401 8.66692ZM8.69801 9.49492L9.64787 10.6559L9.66872 10.6388L9.68895 10.621L8.69801 9.49492ZM8.39201 9.74692L7.43173 8.59459L7.37946 8.63815L7.33135 8.68626L8.39201 9.74692ZM11.47 10.5029L10.4093 11.5636L10.4229 11.5772L10.4369 11.5904L11.47 10.5029ZM11.452 12.6989L10.268 11.778L10.2572 11.7919L10.2467 11.8061L11.452 12.6989ZM10.192 13.4369L9.78756 11.9925L9.77993 11.9946L10.192 13.4369ZM7.76201 13.6889V12.1889C6.92618 12.1889 6.27871 12.1484 5.80047 12.0786L5.58401 13.5629L5.36755 15.0472C6.04131 15.1455 6.84584 15.1889 7.76201 15.1889V13.6889ZM5.58401 13.5629L5.77006 12.0745C5.28106 12.0134 5.0113 11.9235 4.88683 11.8613L4.21601 13.2029L3.54519 14.5446C4.09272 14.8183 4.73495 14.9685 5.39796 15.0513L5.58401 13.5629ZM4.21601 13.2029L4.90648 11.8713C4.8424 11.8381 4.81874 11.8166 4.81822 11.8161C4.81819 11.8161 4.81958 11.8174 4.82206 11.82C4.82456 11.8227 4.82804 11.8267 4.83221 11.8321C4.84077 11.8431 4.85089 11.8581 4.86076 11.8769L3.53201 12.5729L2.20326 13.2689C2.51345 13.8611 3.00574 14.265 3.52553 14.5346L4.21601 13.2029ZM3.53201 12.5729L4.87365 11.9021C4.86288 11.8806 4.83401 11.8115 4.83401 11.6549H3.33401H1.83401C1.83401 12.1943 1.93714 12.7373 2.19037 13.2437L3.53201 12.5729ZM3.33401 11.6549H4.83401C4.83401 11.4006 4.88289 11.2273 4.94565 11.1017L3.60401 10.4309L2.26237 9.7601C1.96513 10.3546 1.83401 10.9972 1.83401 11.6549H3.33401ZM3.60401 10.4309L4.92754 11.1368C5.03087 10.9431 5.17491 10.7575 5.37455 10.58L4.37801 9.45892L3.38146 8.33781C2.93311 8.73634 2.56114 9.19879 2.28048 9.72504L3.60401 10.4309ZM4.37801 9.45892L5.37703 10.5778C5.63689 10.3458 5.93764 10.1248 6.28375 9.91716L5.51201 8.63092L4.74026 7.34468C4.24637 7.64102 3.79112 7.97204 3.37898 8.34002L4.37801 9.45892ZM5.51201 8.63092L6.34406 9.879C6.7166 9.63064 7.06164 9.39233 7.37846 9.16422L6.50201 7.94692L5.62555 6.72962C5.34237 6.93351 5.02742 7.15121 4.67996 7.38285L5.51201 8.63092ZM6.50201 7.94692L7.40963 9.14116C7.74153 8.88892 8.04238 8.63836 8.30594 8.38944L7.27601 7.29892L6.24607 6.2084C6.07764 6.36748 5.86248 6.54892 5.59438 6.75268L6.50201 7.94692ZM7.27601 7.29892L8.33667 8.35958C8.61501 8.08124 8.87411 7.76945 9.06937 7.42231L7.76201 6.68692L6.45464 5.95153C6.43391 5.9884 6.36901 6.0846 6.21535 6.23826L7.27601 7.29892ZM7.76201 6.68692L9.08769 7.38875C9.28717 7.01196 9.42401 6.57441 9.42401 6.09292H7.92401H6.42401C6.42401 6.04675 6.43069 6.01154 6.43636 5.99075C6.44176 5.97095 6.44495 5.96879 6.43633 5.98509L7.76201 6.68692ZM7.92401 6.09292H9.42401C9.42401 5.74456 9.36115 5.37771 9.19955 5.02221L7.83401 5.64292L6.46846 6.26363C6.42687 6.17213 6.42401 6.10528 6.42401 6.09292H7.92401ZM7.83401 5.64292L9.21862 5.066C9.00835 4.56134 8.63689 4.20407 8.22116 3.98022L7.51001 5.30092L6.79886 6.62163C6.75414 6.59755 6.6879 6.55369 6.61908 6.48104C6.54856 6.4066 6.48998 6.31726 6.44939 6.21984L7.83401 5.64292ZM7.51001 5.30092L8.26582 4.00525C7.80402 3.73587 7.30807 3.67492 6.91601 3.67492V5.17492V6.67492C6.96168 6.67492 6.96687 6.679 6.94225 6.67377C6.91719 6.66846 6.8462 6.65025 6.7542 6.59659L7.51001 5.30092ZM6.91601 5.17492V3.67492C6.53833 3.67492 6.16272 3.71788 5.79626 3.81431L6.17801 5.26492L6.55975 6.71553C6.6493 6.69197 6.76569 6.67492 6.91601 6.67492V5.17492ZM6.17801 5.26492L5.85262 3.80064C5.59951 3.85688 5.35453 3.92147 5.1186 3.9952L5.56601 5.42692L6.01342 6.85864C6.16148 6.81237 6.3245 6.76896 6.5034 6.7292L6.17801 5.26492ZM5.56601 5.42692L5.1186 3.9952C5.07348 4.0093 5.02645 4.01692 4.97201 4.01692V5.51692V7.01692C5.32557 7.01692 5.67453 6.96454 6.01342 6.85864L5.56601 5.42692ZM4.97201 5.51692V4.01692C4.94811 4.01692 4.91264 4.01328 4.85924 3.99444L4.36001 5.40892L3.86077 6.82341C4.21538 6.94856 4.58791 7.01692 4.97201 7.01692V5.51692ZM4.36001 5.40892L4.96124 4.03469C5.00185 4.05246 5.03817 4.07582 5.06721 4.10056C5.09542 4.12459 5.10848 4.14281 5.11007 4.14513L3.87401 4.99492L2.63794 5.84472C2.91022 6.24075 3.28236 6.57472 3.75878 6.78316L4.36001 5.40892ZM3.87401 4.99492L5.13336 4.18004C5.17052 4.23747 5.18143 4.27845 5.18261 4.28324C5.18311 4.28528 5.18138 4.27879 5.17957 4.26214C5.17775 4.24546 5.17601 4.22009 5.17601 4.18492H3.67601H2.17601C2.17601 4.7033 2.2762 5.28673 2.61465 5.8098L3.87401 4.99492ZM3.67601 4.18492H5.17601C5.17601 4.16401 5.17276 4.11704 5.2636 4.00727L4.10801 3.05092L2.95242 2.09457C2.46725 2.68081 2.17601 3.38984 2.17601 4.18492H3.67601ZM4.10801 3.05092L5.27931 3.98796C5.35671 3.89122 5.53234 3.73712 5.92248 3.58771L5.38601 2.18692L4.84954 0.786136C4.11167 1.06872 3.43531 1.49062 2.9367 2.11388L4.10801 3.05092ZM5.38601 2.18692L5.92248 3.58771C6.26458 3.45669 6.76596 3.36292 7.47401 3.36292V1.86292V0.362921C6.52605 0.362921 5.63543 0.485154 4.84954 0.786136L5.38601 2.18692ZM7.47401 1.86292V3.36292C8.68664 3.36292 9.25748 3.62842 9.50802 3.85576L10.516 2.74492L11.524 1.63408C10.4785 0.685424 9.02137 0.362921 7.47401 0.362921V1.86292ZM10.516 2.74492L9.50802 3.85576C9.78993 4.11156 9.98801 4.4831 9.98801 5.15692H11.488H12.988C12.988 3.79074 12.5381 2.55428 11.524 1.63408L10.516 2.74492ZM11.488 5.15692H9.98801C9.98801 5.5131 9.92779 5.78154 9.83929 5.98804L11.218 6.57892L12.5967 7.1698C12.8682 6.5363 12.988 5.85674 12.988 5.15692H11.488ZM11.218 6.57892L9.82529 6.02184C9.71212 6.30476 9.56735 6.54846 9.39292 6.76081L10.552 7.71292L11.7111 8.66503C12.0887 8.20538 12.3879 7.69308 12.6107 7.13601L11.218 6.57892ZM10.552 7.71292L9.39292 6.76081C9.16763 7.03508 8.91548 7.29758 8.63499 7.54801L9.63401 8.66692L10.633 9.78583C11.0245 9.43627 11.3844 9.06276 11.7111 8.66503L10.552 7.71292ZM9.63401 8.66692L8.63746 7.54581C8.31517 7.83229 8.00504 8.10663 7.70707 8.36885L8.69801 9.49492L9.68895 10.621C9.99097 10.3552 10.3048 10.0776 10.6306 9.78803L9.63401 8.66692ZM8.69801 9.49492L7.74815 8.33399C7.61499 8.44294 7.50891 8.53027 7.43173 8.59459L8.39201 9.74692L9.35229 10.8993C9.41911 10.8436 9.51703 10.7629 9.64787 10.6559L8.69801 9.49492ZM8.39201 9.74692L7.33135 8.68626C6.99325 9.02435 6.80201 9.47658 6.80201 9.96292H8.30201H9.80201C9.80201 10.1036 9.776 10.2624 9.70913 10.4228C9.64238 10.583 9.54896 10.7113 9.45267 10.8076L8.39201 9.74692ZM8.30201 9.96292H6.80201C6.80201 10.366 6.94455 10.9059 7.43246 11.2962C7.85647 11.6354 8.32174 11.6789 8.57201 11.6789V10.1789V8.67892C8.64227 8.67892 8.97255 8.68642 9.30655 8.95362C9.70447 9.27195 9.80201 9.70387 9.80201 9.96292H8.30201ZM8.57201 10.1789V11.6789C8.86879 11.6789 9.20403 11.6725 9.57598 11.6601L9.52601 10.1609L9.47604 8.66175C9.12799 8.67336 8.82723 8.67892 8.57201 8.67892V10.1789ZM9.52601 10.1609L9.57598 11.6601C9.91991 11.6486 10.2572 11.6429 10.588 11.6429V10.1429V8.64292C10.2228 8.64292 9.85211 8.64922 9.47604 8.66175L9.52601 10.1609ZM10.588 10.1429V11.6429C10.5886 11.6429 10.5796 11.6429 10.5633 11.6399C10.5466 11.6368 10.5257 11.6311 10.5027 11.6217C10.4524 11.6012 10.4206 11.5749 10.4093 11.5636L11.47 10.5029L12.5307 9.44226C12.0015 8.91308 11.3226 8.64292 10.588 8.64292V10.1429ZM11.47 10.5029L10.4369 11.5904C10.4005 11.5558 10.3723 11.5196 10.3518 11.4866C10.3318 11.4543 10.3226 11.4303 10.3194 11.421C10.3164 11.4122 10.3193 11.4177 10.3228 11.4422C10.3263 11.4667 10.33 11.5068 10.33 11.5649H11.83H13.33C13.33 10.8605 13.1539 10.0336 12.5031 9.41542L11.47 10.5029ZM11.83 11.5649H10.33C10.33 11.6821 10.304 11.7318 10.268 11.778L11.452 12.6989L12.636 13.6198C13.1041 13.0181 13.33 12.3117 13.33 11.5649H11.83ZM11.452 12.6989L10.2467 11.8061C10.2694 11.7755 10.2697 11.7907 10.1989 11.8321C10.1258 11.8749 9.99642 11.934 9.78756 11.9925L10.192 13.4369L10.5965 14.8814C11.3523 14.6697 12.1368 14.2945 12.6573 13.5918L11.452 12.6989ZM10.192 13.4369L9.77993 11.9946C9.38658 12.107 8.73619 12.1889 7.76201 12.1889V13.6889V15.1889C8.85182 15.1889 9.82144 15.1028 10.6041 14.8792L10.192 13.4369Z" fill="#420042" mask="url(#path-1-outside-1_3864_46605)"/>
</g>
<defs>
<filter id="filter0_d_3864_46605" x="0.833984" y="0.363281" width="12.4961" height="15.8252" filterUnits="userSpaceOnUse" color-interpolation-filters="sRGB">
<feFlood flood-opacity="0" result="BackgroundImageFix"/>
<feColorMatrix in="SourceAlpha" type="matrix" values="0 0 0 0 0 0 0 0 0 0 0 0 0 0 0 0 0 0 127 0" result="hardAlpha"/>
<feOffset dx="-1" dy="1"/>
<feComposite in2="hardAlpha" operator="out"/>
<feColorMatrix type="matrix" values="0 0 0 0 0.258824 0 0 0 0 0 0 0 0 0 0.258824 0 0 0 1 0"/>
<feBlend mode="normal" in2="BackgroundImageFix" result="effect1_dropShadow_3864_46605"/>
<feBlend mode="normal" in="SourceGraphic" in2="effect1_dropShadow_3864_46605" result="shape"/>
</filter>
</defs>
</svg>
