<svg width="32" height="32" viewBox="0 0 32 32" fill="none" xmlns="http://www.w3.org/2000/svg">
<path d="M11.0575 8.94285C10.5368 8.42215 10.5368 7.57781 11.0575 7.05711C11.5782 6.53657 12.4226 6.53646 12.9433 7.05711L20.9433 15.0571C21.4639 15.5778 21.4638 16.4221 20.9433 16.9429L17.8856 20.0083C17.3649 20.5288 16.5205 20.5289 15.9999 20.0083C15.4794 19.4876 15.4794 18.6432 15.9999 18.1225L18.1142 16.0005L11.0575 8.94285ZM11.0575 24.9428C10.5368 24.4222 10.5368 23.5778 11.0575 23.0571C11.0789 23.0357 13.2049 20.9017 13.7548 20.3989C14.3069 19.8942 15.0324 19.8938 15.4862 20.3032C15.94 20.7129 15.9743 21.6744 15.6522 22.1421C15.3317 22.6074 12.966 24.9206 12.9433 24.9428C12.4226 25.4635 11.5782 25.4635 11.0575 24.9428Z" fill="#1F2D3D"/>
</svg>
