<svg width="9" height="16" viewBox="0 0 9 16" fill="none" xmlns="http://www.w3.org/2000/svg">
<path fill-rule="evenodd" clip-rule="evenodd" d="M8.70076 14.3079C9.08785 14.695 9.08785 15.3226 8.70076 15.7097C8.31368 16.0968 7.6861 16.0968 7.29902 15.7097L5.1964 13.6071C4.80932 13.22 4.80932 12.5924 5.1964 12.2053C5.58348 11.8182 6.21107 11.8182 6.59815 12.2053L8.70076 14.3079ZM7.29904 0.290311C7.68612 -0.0967704 8.3137 -0.0967704 8.70078 0.290311C9.08786 0.677392 9.08786 1.30497 8.70078 1.69206L2.39293 7.99991L3.79467 9.40166C4.18176 9.78874 4.18176 10.4163 3.79467 10.8034C3.40759 11.1905 2.78001 11.1905 2.39293 10.8034L0.290311 8.70078C-0.0967704 8.3137 -0.0967704 7.68612 0.290311 7.29904L7.29904 0.290311Z" fill="#DDE2E8"/>
</svg>
