<svg width="9" height="16" viewBox="0 0 9 16" fill="none" xmlns="http://www.w3.org/2000/svg">
<path fill-rule="evenodd" clip-rule="evenodd" d="M0.290329 14.3079C-0.0967523 14.695 -0.0967523 15.3226 0.290329 15.7097C0.67741 16.0968 1.30499 16.0968 1.69207 15.7097L3.79469 13.6071C4.18177 13.22 4.18177 12.5924 3.79469 12.2053C3.40761 11.8182 2.78003 11.8182 2.39295 12.2053L0.290329 14.3079ZM1.69206 0.290311C1.30497 -0.0967712 0.677392 -0.0967712 0.290311 0.290311C-0.09677 0.677392 -0.0967706 1.30497 0.290311 1.69206L6.59817 7.99991L5.19642 9.40166C4.80934 9.78874 4.80934 10.4163 5.19642 10.8034C5.5835 11.1905 6.21108 11.1905 6.59817 10.8034L8.70078 8.70078C9.08786 8.3137 9.08786 7.68612 8.70078 7.29904L1.69206 0.290311Z" fill="#1F2D3D"/>
</svg>
