<svg width="401" height="52" viewBox="0 0 401 52" fill="none" xmlns="http://www.w3.org/2000/svg">
<path d="M401 21.7279C399.42 21.7279 397.964 21.8909 396.426 21.9375C394.887 21.984 394.263 21.9375 393.265 21.9375C392.226 21.9375 391.228 21.9375 390.23 21.9375H389.564L386.903 21.7512L384.2 21.4486H383.576L381.081 21.0993L378.253 20.6337C366.069 20.6337 346.067 11.81 335.13 8.99297C315.461 3.54511 294.128 4.35996 273.335 3.73136C250.04 2.67955 226.627 2.73407 203.349 3.89433C185.176 5.08168 166.92 7.61936 148.873 6.03622C133.486 4.6859 119.057 0.402109 103.546 0.029606C71.4839 -0.622275 30.2736 9.57501 0 22.31C14.2635 25.0339 38.9647 23.8465 51.8975 27.2456L52.4381 27.3853L53.4778 27.7346L53.8936 27.8975C54.3756 28.0727 54.8343 28.2672 55.2659 28.4796C56.0825 28.8663 56.8599 29.2783 57.5946 29.7135C58.3432 30.1325 59.0501 30.5749 59.7986 31.0405C60.5471 31.5061 62.0442 32.3676 63.2501 32.9962C64.0347 33.3934 64.8684 33.7591 65.7452 34.0904C66.6074 34.4016 67.5277 34.6593 68.4898 34.8587C70.9926 35.3528 73.7044 35.4096 76.2661 35.0216C81.0527 34.2112 85.5946 33.0026 89.7395 31.4363C90.5718 31.1526 91.4326 30.8961 92.3178 30.668L92.8583 30.5283L95.0623 29.9929L95.9772 29.8299C96.5998 29.6891 97.2389 29.5724 97.8901 29.4807L98.9713 29.3643L100.718 29.1547H101.882H103.504H104.668L106.165 29.2711L107.247 29.5272C107.707 29.6039 108.152 29.7052 108.577 29.8299C108.927 29.9564 109.26 30.0964 109.575 30.2489C109.977 30.3996 110.353 30.5711 110.698 30.7611C111.82 31.4195 112.646 32.2174 113.11 33.0893L115.314 37.6059C115.482 37.9017 115.719 38.1836 116.021 38.444C116.31 38.6601 116.645 38.8556 117.019 39.0261C117.455 39.2254 117.947 39.3827 118.474 39.4917C118.978 39.6078 119.511 39.6786 120.055 39.7012C120.442 39.7245 120.832 39.7245 121.219 39.7012H121.718C122.36 39.7256 123.006 39.6942 123.631 39.6081H124.047C124.384 39.5083 124.704 39.3914 125.003 39.2589L125.336 39.0959C125.762 38.88 126.127 38.6288 126.417 38.3509C126.799 38.0061 127.23 37.6791 127.706 37.3731C128.136 37.1098 128.642 36.8894 129.203 36.7212C129.716 36.5636 130.283 36.4684 130.867 36.4418C131.472 36.4473 132.068 36.5268 132.613 36.6746V36.791C133.404 37.056 134.04 37.4444 134.443 37.9086C134.757 38.2452 135.021 38.5956 135.233 38.9562C135.233 39.3054 135.649 39.6779 135.815 40.0504C136.361 41.5838 136.639 43.1432 136.647 44.7067C136.647 45.4983 136.647 46.2433 136.647 47.0349C136.647 47.1513 136.647 47.2677 136.647 47.3608C136.647 47.454 136.647 47.8963 136.647 48.1524V48.5482C136.623 48.7497 136.623 48.9519 136.647 49.1535C136.697 49.2884 136.766 49.4207 136.855 49.5493C136.948 49.7235 137.059 49.8945 137.188 50.0615C137.267 50.1822 137.365 50.299 137.479 50.4107C137.616 50.5607 137.783 50.7013 137.978 50.8298L138.352 51.1091L139.059 51.4351L139.558 51.6213C139.88 51.7128 140.213 51.7907 140.556 51.8542L141.138 51.9706C141.788 52.0098 142.443 52.0098 143.093 51.9706C147.833 51.9706 149.205 50.1546 149.663 47.8497C149.663 47.3841 149.663 46.9185 149.663 46.4296V46.1502C149.663 45.2422 149.663 44.311 149.663 43.4263C149.644 42.1766 150.143 40.9416 151.118 39.8176C151.454 39.4856 151.829 39.1667 152.241 38.8631L152.615 38.6303C152.939 38.3947 153.287 38.1693 153.655 37.9551C153.776 37.899 153.888 37.8367 153.988 37.7689C154.448 37.5113 154.949 37.2775 155.485 37.0704H155.734L157.065 36.6281L157.522 36.4884L158.936 36.1857H159.186C159.732 36.1089 160.288 36.0544 160.849 36.0228H161.265C161.68 35.9996 162.098 35.9996 162.512 36.0228H162.97C163.505 36.0732 164.023 36.1673 164.509 36.3021C164.936 36.4357 165.34 36.5917 165.715 36.7678L166.13 36.9773C166.428 37.1288 166.706 37.2922 166.962 37.4662L167.336 37.7689C167.614 37.9792 167.851 38.2055 168.043 38.444C168.165 38.537 168.263 38.6388 168.334 38.7467C168.668 39.1453 168.946 39.5579 169.166 39.9806C169.359 40.3637 169.638 40.7315 169.998 41.0748C170.342 41.3647 170.747 41.6305 171.204 41.8664C171.204 41.8664 171.204 41.8664 171.204 41.9828L172.451 42.4717L172.909 42.5881C173.399 42.7159 173.916 42.8098 174.447 42.8675H174.78H175.445C175.694 42.8792 175.945 42.8792 176.194 42.8675C176.387 42.8831 176.583 42.8831 176.776 42.8675H177.358L177.899 42.7045L178.356 42.5881L178.814 42.3553L179.188 42.1691L179.562 41.8897C179.669 41.816 179.766 41.7382 179.853 41.6569L180.186 41.3076C180.272 41.2349 180.341 41.1568 180.394 41.0748L180.727 40.6558C180.71 40.5784 180.71 40.5003 180.727 40.423C180.727 40.26 180.934 40.097 181.018 39.9108V39.7245C181.018 39.4917 181.267 39.2589 181.434 39.0028C181.597 38.6458 181.806 38.2958 182.057 37.9551V37.7689C182.256 37.439 182.507 37.1195 182.806 36.8143V36.6514C183.096 36.3735 183.461 36.1222 183.887 35.9063C184.351 35.6972 184.89 35.5464 185.467 35.464C185.729 35.4423 185.995 35.4423 186.257 35.464C186.902 35.4324 187.552 35.4719 188.17 35.5804C189.06 35.7728 189.899 36.0312 190.665 36.3487C192.245 37.0441 193.978 37.6231 195.822 38.0715C196.521 38.1925 197.252 38.2476 197.984 38.2345C198.219 38.2457 198.456 38.2457 198.691 38.2345C199.171 38.222 199.646 38.1751 200.105 38.0948L200.895 37.9086C201.316 37.8236 201.72 37.7144 202.101 37.5826L202.933 37.2567L204.055 36.791L204.762 36.3953L205.677 35.8831L206.384 35.3942L207.174 34.8354L207.632 34.3931C207.892 34.2055 208.115 34.0025 208.297 33.7877C208.479 33.6299 208.646 33.4667 208.796 33.2988L209.212 32.8099C209.212 32.6004 209.586 32.4374 209.753 32.2279C210.086 31.8278 210.461 31.4391 210.875 31.0638L211.665 30.4585C212.161 30.0882 212.703 29.7381 213.287 29.4108C213.443 29.312 213.61 29.2187 213.786 29.1314L214.493 28.7822L215.325 28.433L216.032 28.1769L216.864 27.9208L217.57 27.7578L218.402 27.5949H219.068C219.343 27.5722 219.623 27.5722 219.899 27.5949H220.565H222.062H222.852H223.559H224.349L225.056 27.7113L225.804 27.8742C226.048 27.9066 226.285 27.9535 226.511 28.0139L227.301 28.1769L228.008 28.3632L228.757 28.5494L229.464 28.7589L230.212 28.9685L233.456 29.8764H233.788L235.119 30.2257L236.616 30.5516C238.729 30.9799 240.943 31.231 243.187 31.2966C244.322 31.3317 245.461 31.3317 246.597 31.2966C248.141 31.2642 249.682 31.1865 251.212 31.0638H252.377L259.405 30.2955L266.183 29.5272L268.553 29.3177H269.26L271.007 29.2013H271.838H273.585H276.828H279.24H279.947L281.611 29.341H282.401C282.938 29.3939 283.467 29.4717 283.981 29.5738H284.688C285.426 29.7023 286.149 29.8578 286.85 30.0394C287.653 30.2555 288.419 30.5127 289.138 30.8077L289.678 31.0172C290.381 31.3101 291.048 31.629 291.674 31.9718C292.312 32.3658 292.895 32.7861 293.421 33.229L293.795 33.5782C294.318 34.063 294.777 34.5688 295.167 35.0915C295.19 35.1451 295.19 35.2009 295.167 35.2545L295.874 35.9762C296.138 36.212 296.429 36.4376 296.748 36.6514C297.037 36.8743 297.372 37.0775 297.746 37.2567C298.183 37.4985 298.672 37.7096 299.201 37.8853L299.7 38.025C300.138 38.1573 300.598 38.2664 301.072 38.3509H301.322H301.946H302.694H304.773C304.981 38.3618 305.19 38.3618 305.397 38.3509H305.979H306.52L307.06 38.2112L307.56 38.0482L308.059 37.8387L308.474 37.6525L308.932 37.3731L309.306 37.1635C309.458 37.0684 309.597 36.9673 309.722 36.8609L310.096 36.6048L310.512 36.2789L310.803 36.0228L311.219 35.627L311.468 35.3709L311.967 34.9052C311.945 34.8438 311.945 34.7804 311.967 34.719L312.591 34.0438C312.599 33.9896 312.599 33.9351 312.591 33.8809L313.09 33.3454V33.2057L313.589 32.6935L313.922 32.4374L314.296 32.0649L314.546 31.8787C314.702 31.7371 314.883 31.6045 315.086 31.4829C316.246 30.9286 317.609 30.5233 319.078 30.2955L320.284 29.923C320.982 29.7488 321.706 29.6086 322.447 29.5039H323.029C323.781 29.4061 324.546 29.3438 325.316 29.3177C326.498 29.286 327.683 29.325 328.851 29.4341C330.676 29.6014 332.424 29.9694 333.995 30.5168C335.565 31.0642 336.926 31.7803 337.999 32.6237C338.58 33.1067 339.042 33.6314 339.372 34.1835C339.582 34.5652 339.749 34.954 339.871 35.3476V35.6968C339.871 36.046 339.871 36.3953 340.203 36.7678C340.361 37.3415 340.583 37.9092 340.869 38.4673C341.072 38.8 341.337 39.1199 341.659 39.4218L341.908 39.6779C342.286 40.0431 342.763 40.373 343.322 40.6558C343.877 40.9375 344.491 41.18 345.152 41.3775L346.025 41.6336L347.19 41.8431C347.542 41.9189 347.903 41.9811 348.271 42.0294C350.03 42.1841 351.832 42.0295 353.427 41.587L353.926 41.4241C354.319 41.3091 354.694 41.1767 355.049 41.0283C355.648 40.7867 356.193 40.5053 356.671 40.1901C357.121 39.8803 357.511 39.5447 357.835 39.189L358.126 38.8631C358.345 38.5973 358.54 38.3253 358.708 38.0482C358.708 37.9318 358.708 37.8154 358.708 37.7223C358.708 37.6292 359.083 36.954 359.249 36.5582C359.415 36.1624 359.54 35.6735 359.707 35.2312C359.873 34.7888 359.707 34.556 359.998 34.2068C360.017 34.044 360.017 33.8807 359.998 33.7179C359.998 33.2988 360.289 32.903 360.497 32.4141C360.716 31.964 360.98 31.5209 361.287 31.0871C361.573 30.6861 361.935 30.3036 362.368 29.9463C362.892 29.4771 363.537 29.0535 364.281 28.6891L364.613 28.5261C365.311 28.1996 366.063 27.9111 366.859 27.6647L368.398 27.2456C369.401 27.0289 370.429 26.85 371.475 26.7102L374.552 26.3842C376.132 26.3842 377.796 26.1747 379.501 26.1048L382.329 25.9652H383.826C388.201 25.8925 392.481 25.2296 396.301 24.0328L397.008 23.7534C397.563 23.5247 398.091 23.2758 398.588 23.0084C398.588 23.0084 398.588 22.892 398.838 22.8454C398.986 22.7066 399.152 22.5743 399.337 22.4497L401 21.7279Z" fill="white"/>
</svg>
