<svg width="326" height="261" viewBox="0 0 326 261" fill="none" xmlns="http://www.w3.org/2000/svg">
    <g style="mix-blend-mode:screen" opacity="0.5">
        <path
            d="M16.3321 201.081C16.2358 164.722 27.9091 129.308 49.6072 100.132C71.3052 70.9573 101.863 49.5878 136.712 39.2183C171.561 28.8487 208.83 30.036 242.949 42.6026C277.068 55.1693 306.203 78.4403 326 108.937C317.649 86.8188 304.735 66.7061 288.098 49.9078C271.462 33.1095 251.474 20.002 229.438 11.438C207.401 2.87407 183.808 -0.954493 160.193 0.201441C136.579 1.35737 113.473 7.47191 92.3776 18.1472C71.2825 28.8226 52.6711 43.8195 37.7544 62.1624C22.8377 80.5052 11.9499 101.783 5.79931 124.611C-0.351297 147.44 -1.62689 171.308 2.05552 194.661C5.73794 218.015 14.2959 240.333 27.1725 260.161C20.0394 241.279 16.3673 221.265 16.3321 201.081Z"
            fill="#EA4883" />
    </g>
</svg>