<svg width="1299" height="887" viewBox="0 0 1299 887" fill="none" xmlns="http://www.w3.org/2000/svg">
    <path opacity="0.5"
        d="M1298.96 233.975C1258.93 335.96 1193.74 426.147 1109.47 496.143C1025.2 566.138 924.581 613.667 816.977 634.307C709.373 654.946 598.282 648.024 494.044 614.186C389.805 580.349 295.807 520.694 220.798 440.774C108.452 321.409 45.5698 163.878 44.851 -5.51531e-05C9.91198 89.0581 -4.91542 184.746 1.42908 280.223C7.77357 375.7 35.1333 468.606 81.5519 552.3C127.97 635.993 192.301 708.407 269.945 764.362C347.588 820.317 436.626 858.432 530.693 875.982C624.759 893.532 721.531 890.082 814.088 865.881C906.644 841.679 992.7 797.323 1066.1 735.984C1139.5 674.645 1198.44 597.838 1238.69 511.056C1278.95 424.273 1299.53 329.657 1298.96 233.975Z"
        fill="#BD245C" />
</svg>